# xmcd
#
# Track frame offsets:
#	150
#	55639
#	97050
#	139575
#	159190
#	235630
#	260625
#	277380
#
# Disc length: 4225 seconds
#
# Revision: 1
# Processed by: cddbd v1.5.1PL0 Copyright (c) Steve Scherf et al.
# Submitted via: CDex 1.50Beta5
#
DISCID=6b107f08
DTITLE=吉崎克彦 - 祈詩REN-MEN
DYEAR=1900
DGENRE=
TTITLE0=祈詩REN-MEN
TTITLE1=木もれび
TTITLE2=天馬
TTITLE3=YOU
TTITLE4=WHITE DREAM
TTITLE5=スペイン風即興曲
TTITLE6=スペイン風即興曲
TTITLE7=手・て・テ
EXTD=
EXTT0=
EXTT1=
EXTT2=
EXTT3=
EXTT4=
EXTT5=
EXTT6=
EXTT7=
PLAYORDER=
